<svg xmlns="http://www.w3.org/2000/svg" viewBox="0 0 27 21"><defs><style>.cls-1{isolation:isolate;}.cls-2{fill:#fff;fill-rule:evenodd;}</style></defs><title>loginarrow</title><g id="Layer_2" data-name="Layer 2"><g id="Log_in" data-name="Log in" class="cls-1"><g id="Modal"><g id="Log_in-2" data-name="Log in"><g id="Arrow"><path class="cls-2" d="M26.42,9.4,17.29.35a1.21,1.21,0,0,0-1.7,0A1.18,1.18,0,0,0,15.6,2L23,9.36H.77a.77.77,0,0,0-.77.77v.75a.77.77,0,0,0,.77.77H23L15.6,19a1.18,1.18,0,0,0,0,1.68,1.2,1.2,0,0,0,1.7,0l9.11-9a.75.75,0,0,0,.6-.73v-.75A.75.75,0,0,0,26.42,9.4Z"/></g></g></g></g></g></svg>